<svg width="11" height="20" viewBox="0 0 11 20" fill="none" xmlns="http://www.w3.org/2000/svg">
<path d="M7.33333 11H6.83333V11.5V19.5H3.64286V11.5V11H3.14286H0.5V8H3.14286H3.64286V7.5V4.7C3.64286 3.29438 4.10568 2.26126 4.84751 1.57621C5.59509 0.885853 6.67946 0.5 8.00695 0.5C8.99532 0.5 9.94162 0.551892 10.5 0.595235V3H9.42857C8.32779 3 7.59125 3.25203 7.18667 3.82552C6.99358 4.09924 6.90989 4.40283 6.87082 4.6842C6.83329 4.95449 6.83331 5.23757 6.83333 5.48371L6.83333 5.5V7.5V8H7.33333H10.3522L9.56647 11H7.33333Z" fill="#F9FBFD" stroke="black"/>
</svg>
